#!OML:ASF X:\für Bonn\!DataBase\2005_08_12_Daniel\c3d\Daniel.ASF
:FULLY-SPECIFIED
:DEGREES
201
root -0.191621 6.76316 -14.7662 324.304 23.6874 -3.00417
lowerback 80.3018 -7.113 10.9175
upperback 11.7293 2.87633 -1.34793
thorax -6.18148 2.5293 -6.89699
lowerneck 6.21257 -4.5182 -1.94692
upperneck 19.0814 -6.44241 5.35246
head 4.96702 -2.84576 1.85005
rclavicle -7.31528e-014 -4.05521e-014
rhumerus 21.0274 14.2489 -96.2454
rradius 12.7709
rwrist 64.8366
rhand -30.3685 15.6697
rfingers 7.12502
rthumb -3.67327 -14.2784
lclavicle -7.31528e-014 -4.05521e-014
lhumerus -13.8024 -1.79249 92.6415
lradius 47.167
lwrist -8.73955
lhand -12.0416 -8.57404
lfingers 7.12502
lthumb 14.0169 20.9333
rfemur 21.9436 -41.3855 -135.453
rtibia 158.391
rfoot -63.8266 -276.846
rtoes 12.921
lfemur -47.8993 72.9883 49.7476
ltibia 155.674
lfoot -62.9555 -73.5075
ltoes 9.60175
202
root -0.191635 6.75404 -14.7624 324.292 23.8313 -2.94526
lowerback 80.1742 -7.14768 11.0323
upperback 11.7403 2.9317 -1.30846
thorax -6.16833 2.55793 -6.91633
lowerneck 6.09953 -4.66992 -2.03522
upperneck 18.9392 -6.66865 5.53885
head 4.95868 -2.95285 1.91371
rclavicle 4.45278e-014 3.97569e-015
rhumerus 20.9197 11.8117 -97.3221
rradius 12.0783
rwrist 68.0422
rhand -29.9816 15.3394
rfingers 7.12502
rthumb -3.29967 -14.6149
lclavicle 4.45278e-014 3.97569e-015
lhumerus -13.5787 -1.88205 92.6883
lradius 47.0427
lwrist -8.75486
lhand -11.9998 -8.69423
lfingers 7.12502
lthumb 14.0571 20.8104
rfemur 21.6552 -41.3302 -135.586
rtibia 158.452
rfoot -65.9044 -276.666
rtoes 12.8963
lfemur -47.9266 73.0192 49.7021
ltibia 155.697
lfoot -62.9917 -73.7273
ltoes 9.83465
203
root -0.191362 6.74324 -14.7578 324.317 23.9764 -2.85918
lowerback 80.0145 -7.13877 11.0739
upperback 11.7463 2.96573 -1.25809
thorax -6.17687 2.56953 -6.88992
lowerneck 6.04378 -4.79484 -2.16777
upperneck 18.7936 -6.85881 5.72158
head 4.94041 -3.04684 1.98586
rclavicle 2.06736e-014 1.11319e-014
rhumerus 20.8114 9.06461 -98.5534
rradius 11.3463
rwrist 71.8616
rhand -29.7091 14.9792
rfingers 7.12502
rthumb -3.03649 -14.9789
lclavicle 2.06736e-014 1.11319e-014
lhumerus -13.4258 -1.8431 92.7135
lradius 46.9681
lwrist -8.79319
lhand -11.9326 -8.76965
lfingers 7.12502
lthumb 14.1219 20.7304
rfemur 21.3417 -41.3071 -135.798
rtibia 158.542
rfoot -68.3089 -276.515
rtoes 12.8149
lfemur -47.4476 73.1414 50.1719
ltibia 155.724
lfoot -63.5845 -73.9183
ltoes 9.97949
204
root -0.190606 6.72941 -14.7524 324.317 24.1334 -2.78861
lowerback 79.8335 -7.15276 11.1375
upperback 11.7624 2.98891 -1.22085
thorax -6.17417 2.58051 -6.88288
lowerneck 5.98749 -4.92628 -2.2527
upperneck 18.6394 -7.05464 5.89215
head 4.91846 -3.14142 2.04604
rclavicle -3.49861e-014 -1.35174e-014
rhumerus 20.7237 5.78708 -100.025
rradius 10.6092
rwrist 76.1814
rhand -29.5919 14.6516
rfingers 7.12502
rthumb -2.92339 -15.3081
lclavicle -3.49861e-014 -1.35174e-014
lhumerus -13.3106 -1.84331 92.7213
lradius 46.9239
lwrist -8.84702
lhand -11.8769 -8.80338
lfingers 7.12502
lthumb 14.1757 20.693
rfemur 20.9668 -41.2922 -135.997
rtibia 158.635
rfoot -70.6232 -276.254
rtoes 12.8566
lfemur -47.2208 73.2489 50.4709
ltibia 155.781
lfoot -63.9546 -74.2485
ltoes 10.2517
205
root -0.189626 6.71357 -14.7462 324.322 24.2588 -2.74092
lowerback 79.6408 -7.16231 11.199
upperback 11.7739 3.00872 -1.18886
thorax -6.17871 2.58838 -6.88069
lowerneck 5.90852 -5.03214 -2.37904
upperneck 18.5081 -7.22258 6.09168
head 4.90886 -3.2232 2.12202
rclavicle -3.18055e-014 6.52014e-014
rhumerus 20.7002 2.67612 -101.409
rradius 9.89746
rwrist 80.4434
rhand -29.6412 14.3021
rfingers 7.12502
rthumb -2.97096 -15.657
lclavicle -3.18055e-014 6.52014e-014
lhumerus -13.2131 -1.75555 92.7355
lradius 46.8826
lwrist -8.88887
lhand -11.8137 -8.86708
lfingers 7.12502
lthumb 14.2365 20.625
rfemur 20.5932 -41.2625 -136.216
rtibia 158.755
rfoot -73.5184 -276.036
rtoes 12.7725
lfemur -46.687 73.4495 51.168
ltibia 155.867
lfoot -64.7771 -74.4764
ltoes 10.2762
206
root -0.189298 6.69631 -14.7388 324.322 24.393 -2.69311
lowerback 79.4792 -7.15114 11.2257
upperback 11.7617 3.02788 -1.14892
thorax -6.2117 2.59034 -6.85664
lowerneck 5.81127 -5.13952 -2.48746
upperneck 18.3974 -7.38914 6.26158
head 4.90756 -3.30393 2.18505
rclavicle 4.6118e-014 -6.36111e-014
rhumerus 20.684 -0.40896 -102.818
rradius 9.29862
rwrist 84.691
rhand -29.7121 13.9326
rfingers 7.12502
rthumb -3.0394 -16.0254
lclavicle 4.6118e-014 -6.36111e-014
lhumerus -13.1718 -1.66821 92.7297
lradius 46.8722
lwrist -8.97155
lhand -11.8089 -8.89507
lfingers 7.12502
lthumb 14.2411 20.5967
rfemur 20.1865 -41.1988 -136.459
rtibia 158.894
rfoot -77.0629 -275.842
rtoes 12.7755
lfemur -46.0399 73.6604 52.0259
ltibia 155.947
lfoot -65.4711 -74.8565
ltoes 10.5614
207
root -0.188717 6.67634 -14.7309 324.338 24.5329 -2.63577
lowerback 79.2641 -7.14546 11.2433
upperback 11.7912 3.02164 -1.12518
thorax -6.20516 2.58755 -6.83862
lowerneck 5.56263 -5.23919 -2.60749
upperneck 18.3717 -7.55206 6.43719
head 4.95821 -3.3789 2.2468
rclavicle -3.02153e-014 5.1684e-014
rhumerus 20.7739 -3.47456 -104.23
rradius 8.74365
rwrist 88.9094
rhand -30.0033 13.6885
rfingers 7.12502
rthumb -3.32061 -16.2654
lclavicle -3.02153e-014 5.1684e-014
lhumerus -13.0882 -1.53599 92.6946
lradius 46.872
lwrist -9.00951
lhand -11.7702 -8.90817
lfingers 7.12502
lthumb 14.2784 20.5809
rfemur 19.7579 -41.1189 -136.756
rtibia 159.035
rfoot -81.2777 -275.556
rtoes 12.7942
lfemur -45.1596 73.9227 53.1391
ltibia 156.054
lfoot -66.5459 -75.1576
ltoes 10.7474
208
root -0.188621 6.65669 -14.7228 324.363 24.6781 -2.60165
lowerback 79.0434 -7.13582 11.2605
upperback 11.8036 3.0195 -1.08888
thorax -6.21955 2.58171 -6.80805
lowerneck 5.35936 -5.33858 -2.73407
upperneck 18.3001 -7.71179 6.60884
head 4.98775 -3.45483 2.30965
rclavicle -1.36764e-013 2.94201e-014
rhumerus 20.9008 -6.5441 -105.612
rradius 8.24601
rwrist 93.0221
rhand -30.4592 13.5858
rfingers 7.12502
rthumb -3.76095 -16.3607
lclavicle -1.36764e-013 2.94201e-014
lhumerus -13.0453 -1.40679 92.6635
lradius 46.8793
lwrist -9.00246
lhand -11.7538 -8.94423
lfingers 7.12502
lthumb 14.2942 20.5438
rfemur 19.3297 -41.041 -137.045
rtibia 159.189
rfoot -85.7728 -275.3
rtoes 12.8355
lfemur -44.8992 74.1496 53.6606
ltibia 156.175
lfoot -67.3599 -75.4372
ltoes 10.9256
